HIERARCHY
ROOT Pelvis
{
	OFFSET 0.000000 0.000000 0.000000
	CHANNELS 6 Xposition Yposition Zposition Xrotation Yrotation Zrotation
	JOINT LeftUpLeg_virtual
	{
		OFFSET 0.000000 0.000000 0.000000
		CHANNELS 3 Xrotation Yrotation Zrotation
		JOINT LeftUpLeg
		{
			OFFSET 18.735201 -5.666702 -4.541200
			CHANNELS 3 Xrotation Yrotation Zrotation
			JOINT LeftLeg
			{
				OFFSET -0.021200 -31.938179 0.493100
				CHANNELS 3 Xrotation Yrotation Zrotation
				JOINT LeftFoot
				{
					OFFSET 0.021200 -31.938179 -4.336299
					CHANNELS 3 Xrotation Yrotation Zrotation
					JOINT LeftToeBase
					{
						OFFSET 0.943001 -26.722000 15.023500
						CHANNELS 3 Xrotation Yrotation Zrotation
						End Site
						{
							OFFSET 0 0 0
						}
					}
				}
			}
		}
	}
	JOINT RightUpLeg_virtual
	{
		OFFSET 0.000000 0.000000 0.000000
		CHANNELS 3 Xrotation Yrotation Zrotation
		JOINT RightUpLeg
		{
			OFFSET -18.735201 -5.666702 -4.541200
			CHANNELS 3 Xrotation Yrotation Zrotation
			JOINT RightLeg
			{
				OFFSET 0.018946 -31.938133 0.493100
				CHANNELS 3 Xrotation Yrotation Zrotation
				JOINT RightFoot
				{
					OFFSET -0.018946 -31.938126 -4.336299
					CHANNELS 3 Xrotation Yrotation Zrotation
					JOINT RightToeBase
					{
						OFFSET -0.943001 -26.722004 15.023500
						CHANNELS 3 Xrotation Yrotation Zrotation
						End Site
						{
							OFFSET 0 0 0
						}
					}
				}
			}
		}
	}
	JOINT Hips_virtual
	{
		OFFSET 0.000000 0.000000 0.000000
		CHANNELS 3 Xrotation Yrotation Zrotation
		JOINT Hips
		{
			OFFSET -0.000000 -0.000000 -0.000000
			CHANNELS 3 Xrotation Yrotation Zrotation
			JOINT Spine
			{
				OFFSET 0.000000 10.199997 -0.299500
				CHANNELS 3 Xrotation Yrotation Zrotation
				JOINT Spine1
				{
					OFFSET 0.000000 11.900002 -1.516600
					CHANNELS 3 Xrotation Yrotation Zrotation
					JOINT Spine2
					{
						OFFSET 0.000000 13.600006 -2.842500
						CHANNELS 3 Xrotation Yrotation Zrotation
						JOINT Neck_virtual
						{
							OFFSET 0.000000 0.000000 0.000000
							CHANNELS 3 Xrotation Yrotation Zrotation
							JOINT Neck
							{
								OFFSET 0.000000 9.624100 -2.890100
								CHANNELS 3 Xrotation Yrotation Zrotation
								JOINT Head
								{
									OFFSET 0.000000 14.068802 -1.351900
									CHANNELS 3 Xrotation Yrotation Zrotation
									End Site
									{
										OFFSET 0 0 0
									}
								}
							}
						}
						JOINT LeftShoulder_virtual
						{
							OFFSET 0.000000 0.000000 0.000000
							CHANNELS 3 Xrotation Yrotation Zrotation
							JOINT LeftShoulder
							{
								OFFSET 15.263000 10.923401 -0.547700
								CHANNELS 3 Xrotation Yrotation Zrotation
								JOINT LeftArm
								{
									OFFSET 25.438599 -2.830597 -13.032500
									CHANNELS 3 Xrotation Yrotation Zrotation
									JOINT LeftForeArm
									{
										OFFSET 29.960503 0.000000 0.000000
										CHANNELS 3 Xrotation Yrotation Zrotation
										JOINT LeftHand
										{
											OFFSET 27.849251 0.000000 0.000000
											CHANNELS 3 Xrotation Yrotation Zrotation
											End Site
											{
												OFFSET 0 0 0
											}
										}
									}
								}
							}
						}
						JOINT RightShoulder_virtual
						{
							OFFSET 0.000000 0.000000 0.000000
							CHANNELS 3 Xrotation Yrotation Zrotation
							JOINT RightShoulder
							{
								OFFSET -15.263000 10.923401 -0.547700
								CHANNELS 3 Xrotation Yrotation Zrotation
								JOINT RightArm
								{
									OFFSET -25.438599 -2.830597 -13.032500
									CHANNELS 3 Xrotation Yrotation Zrotation
									JOINT RightForeArm
									{
										OFFSET -29.960503 0.000000 0.000000
										CHANNELS 3 Xrotation Yrotation Zrotation
										JOINT RightHand
										{
											OFFSET -27.849251 0.000000 0.000000
											CHANNELS 3 Xrotation Yrotation Zrotation
											End Site
											{
												OFFSET 0 0 0
											}
										}
									}
								}
							}
						}
					}
				}
			}
		}
	}
}
MOTION
Frames: 5
Frame Time: 0.03333333
0.762257 95.253525 4.341942 0.000000 0.000000 0.000000 -4.056679 6.146969 -1.685509 -6.312011 9.856978 12.843582 17.335804 -7.008988 0.228861 -8.257301 1.149034 -8.069707 0.000000 0.000000 0.000000 -4.056679 6.146969 -1.685509 -3.362509 -5.894880 0.951257 12.479167 3.447876 -0.564725 -4.920987 -0.034566 0.670872 0.000000 0.000000 0.000000 -4.056679 6.146969 -1.685509 0.000000 0.000000 0.000000 4.902932 -0.340364 1.141226 5.814413 -0.121248 1.891503 0.000000 0.000000 0.000000 -4.300226 -0.608020 -1.115062 0.268319 -0.226365 0.191249 0.000000 0.000000 0.000000 -4.300226 -0.608020 -1.115062 1.687379 -7.781276 -3.495010 -0.671930 -2.004020 -76.954225 6.346059 -10.905879 1.751779 0.000000 0.000000 0.000000 -4.300226 -0.608020 -1.115062 2.088909 10.213785 4.097141 1.436097 3.709010 75.271799 15.720264 15.338542 -4.555620 0.000000 0.000000 0.000000 
0.744483 95.243027 4.376356 0.000000 0.000000 0.000000 -4.045861 5.934496 -1.712506 -6.233074 9.956726 12.908042 17.363205 -6.908092 0.186855 -8.369196 1.157328 -8.082323 0.000000 0.000000 0.000000 -4.045861 5.934496 -1.712506 -3.448041 -5.929605 0.932212 12.557686 3.696267 -0.491889 -4.923202 -0.029777 0.594389 0.000000 0.000000 0.000000 -4.045861 5.934496 -1.712506 0.000000 0.000000 0.000000 5.235926 -0.313861 1.103091 5.633655 -0.121060 1.918716 0.000000 0.000000 0.000000 -4.352965 -0.591955 -1.049514 0.274092 -0.219904 0.184219 0.000000 0.000000 0.000000 -4.352965 -0.591955 -1.049514 1.651270 -7.731092 -3.681486 -0.695463 -2.100494 -76.810969 6.241784 -10.917059 1.584200 0.000000 0.000000 0.000000 -4.352965 -0.591955 -1.049514 2.064653 10.089341 4.140847 1.630637 4.074592 75.042100 15.586951 15.435708 -4.453121 0.000000 0.000000 0.000000 
0.727993 95.223404 4.413246 0.000000 0.000000 0.000000 -3.952039 5.749104 -1.744145 -6.260596 9.987242 12.942710 17.425660 -6.767523 0.178357 -8.479961 1.168013 -8.112751 0.000000 0.000000 0.000000 -3.952039 5.749104 -1.744145 -3.650162 -5.916556 0.933416 12.675439 3.942571 -0.459782 -4.931218 -0.025562 0.539594 0.000000 0.000000 0.000000 -3.952039 5.749104 -1.744145 0.000000 0.000000 0.000000 5.415377 -0.319450 1.121624 5.522213 -0.132479 1.904806 0.000000 0.000000 0.000000 -4.333487 -0.594682 -1.023816 0.248128 -0.210094 0.188682 0.000000 0.000000 0.000000 -4.333487 -0.594682 -1.023816 1.620308 -7.552169 -3.860862 -0.751190 -2.300622 -76.607142 6.273866 -11.004188 1.438891 0.000000 0.000000 0.000000 -4.333487 -0.594682 -1.023816 1.990163 10.065641 4.383188 2.016827 4.166792 74.641919 15.644910 15.971460 -4.499027 0.000000 0.000000 0.000000 
0.691166 95.202438 4.451696 0.000000 0.000000 0.000000 -3.896254 5.547565 -1.785998 -6.272697 10.069283 13.039524 17.517617 -6.682313 0.142471 -8.613795 1.179833 -8.141779 0.000000 0.000000 0.000000 -3.896254 5.547565 -1.785998 -3.780765 -5.894320 0.958826 12.781541 4.079750 -0.403180 -4.959181 -0.022125 0.462175 0.000000 0.000000 0.000000 -3.896254 5.547565 -1.785998 0.000000 0.000000 0.000000 5.796132 -0.326685 1.057806 5.242577 -0.156766 1.980717 0.000000 0.000000 0.000000 -4.477640 -0.616532 -0.907269 0.312796 -0.192223 0.168823 0.000000 0.000000 0.000000 -4.477640 -0.616532 -0.907269 1.575139 -7.497787 -4.111632 -0.649927 -2.291438 -76.423253 6.332385 -11.136892 1.329738 0.000000 0.000000 0.000000 -4.477640 -0.616532 -0.907269 1.992627 10.037302 4.259008 2.129312 4.477115 74.585748 15.564225 15.783220 -4.347646 0.000000 0.000000 0.000000 
0.654626 95.175400 4.502417 0.000000 0.000000 0.000000 -3.787827 5.334203 -1.847675 -6.324595 10.046425 13.094343 17.662193 -6.453068 0.185419 -8.783181 1.202276 -8.229160 0.000000 0.000000 0.000000 -3.787827 5.334203 -1.847675 -3.954749 -5.884841 0.981366 12.863007 4.248986 -0.310585 -4.970976 -0.015716 0.363813 0.000000 0.000000 0.000000 -3.787827 5.334203 -1.847675 0.000000 0.000000 0.000000 5.961958 -0.330090 1.150431 5.138955 -0.169619 1.922761 0.000000 0.000000 0.000000 -4.445558 -0.615047 -0.923940 0.280283 -0.182710 0.179015 0.000000 0.000000 0.000000 -4.445558 -0.615047 -0.923940 1.548017 -7.340915 -4.191912 -0.740684 -2.457495 -76.268645 6.412176 -11.186914 1.166559 0.000000 0.000000 0.000000 -4.445558 -0.615047 -0.923940 1.962680 9.891856 4.427145 2.263375 4.863581 74.267898 15.700836 15.892038 -4.313926 0.000000 0.000000 0.000000 
